<svg width="29" height="28" viewBox="0 0 29 28" fill="none" xmlns="http://www.w3.org/2000/svg">
<rect width="29" height="27.5" rx="4" fill="#FE7040"/>
<path d="M7 7H11.5C12.2956 7 13.0587 7.31607 13.6213 7.87868C14.1839 8.44129 14.5 9.20435 14.5 10V20.5C14.5 19.9033 14.2629 19.331 13.841 18.909C13.419 18.4871 12.8467 18.25 12.25 18.25H7V7Z" stroke="white" stroke-width="1.5" stroke-linecap="round" stroke-linejoin="round"/>
<path d="M22 7H17.5C16.7044 7 15.9413 7.31607 15.3787 7.87868C14.8161 8.44129 14.5 9.20435 14.5 10V20.5C14.5 19.9033 14.7371 19.331 15.159 18.909C15.581 18.4871 16.1533 18.25 16.75 18.25H22V7Z" stroke="white" stroke-width="1.5" stroke-linecap="round" stroke-linejoin="round"/>
</svg>
